<svg width="12" height="12" viewBox="0 0 12 12" fill="none" xmlns="http://www.w3.org/2000/svg">
<path d="M11.4832 7.88955H4.5773C4.48117 7.89504 4.38678 7.8622 4.31482 7.79823C4.24286 7.73426 4.19918 7.64438 4.19336 7.54827V6.26095C4.19336 6.07274 4.37404 6.05267 4.5773 5.91967L8.03023 4.15054L11.4832 5.92469C11.709 6.06521 11.8671 6.07776 11.8671 6.26597V7.54827C11.8613 7.64438 11.8176 7.73426 11.7456 7.79823C11.6737 7.8622 11.5793 7.89504 11.4832 7.88955Z" fill="url(#paint0_linear)"/>
<path d="M8.63003 7.611V4.7553L11.413 5.97236C11.4757 6.01 11.5334 6.04011 11.5861 6.06521C11.7266 6.13547 11.7266 6.143 11.7266 6.18315V7.42028C11.7185 7.47897 11.6876 7.53211 11.6407 7.56825C11.5938 7.6044 11.5345 7.62065 11.4757 7.61351H8.63003V7.611ZM4.57736 7.611C4.51854 7.61814 4.45928 7.60189 4.41234 7.56574C4.3654 7.5296 4.33454 7.47646 4.32642 7.41777V6.18064C4.32642 6.14049 4.33896 6.12543 4.47447 6.06019C4.5329 6.03217 4.58985 6.00118 4.64511 5.96734L7.47822 4.72519V7.611H4.57736Z" fill="url(#paint1_radial)"/>
<path d="M8.62979 7.611V4.7553L11.4127 5.97236C11.4754 6.01 11.5332 6.04011 11.5859 6.06521C11.7264 6.13547 11.7264 6.143 11.7264 6.18315V7.42028C11.7183 7.47897 11.6874 7.53211 11.6405 7.56825C11.5935 7.6044 11.5343 7.62065 11.4754 7.61351H8.62979V7.611ZM4.57711 7.611C4.5183 7.61814 4.45904 7.60189 4.4121 7.56574C4.36516 7.5296 4.3343 7.47646 4.32617 7.41777V6.18064C4.32617 6.14049 4.33872 6.12543 4.47423 6.06019C4.53265 6.03217 4.58961 6.00118 4.64487 5.96734L7.47798 4.72519V7.611H4.57711Z" fill="url(#paint2_linear)"/>
<path d="M7.45557 5.74652H8.60738V7.88955H7.45557V5.74652Z" fill="url(#paint3_linear)"/>
<path d="M9.02382 5.73147L8.87326 5.92469H7.18443L7.03638 5.73147V3.67627H9.02382V5.73147Z" fill="url(#paint4_linear)"/>
<path d="M9.78673 1.99496C9.75114 1.99588 9.71637 2.0058 9.68565 2.02379C9.65494 2.04178 9.62928 2.06726 9.61107 2.09784V1.54076C9.61107 1.25468 9.44294 0.115417 8.28109 0.115417H7.70643C6.70268 0.115417 6.41911 1.25468 6.41911 1.54076V2.06271C6.40063 2.04224 6.37822 2.02569 6.35322 2.01405C6.32822 2.00241 6.30113 1.99592 6.27357 1.99496C6.21236 2.00235 6.15602 2.03202 6.11529 2.07831C6.07456 2.12459 6.0523 2.18425 6.05274 2.2459L6.11548 2.83561C6.11503 2.89726 6.1373 2.95691 6.17803 3.0032C6.21875 3.04948 6.2751 3.07915 6.3363 3.08655C6.39037 3.08524 6.44176 3.06271 6.47934 3.02381V3.62105C6.47934 3.90712 7.458 4.80548 7.71145 4.80548H8.28109C8.53203 4.80548 9.51822 3.89457 9.51822 3.6085V3.0489C9.53643 3.07949 9.56209 3.10497 9.59281 3.12296C9.62352 3.14095 9.65829 3.15087 9.69388 3.15179C9.75508 3.14439 9.81143 3.11472 9.85216 3.06844C9.89288 3.02216 9.91515 2.9625 9.91471 2.90085L10.0076 2.2459C10.008 2.18425 9.98573 2.12459 9.945 2.07831C9.90427 2.03202 9.84793 2.00235 9.78673 1.99496Z" fill="url(#paint5_radial)"/>
<path d="M9.78673 1.99499C9.75114 1.99591 9.71637 2.00583 9.68565 2.02382C9.65494 2.04181 9.62928 2.06729 9.61107 2.09787V1.54079C9.61107 1.25471 9.44294 0.115448 8.28109 0.115448H7.70643C6.70268 0.115448 6.41911 1.25471 6.41911 1.54079V2.06274C6.40063 2.04227 6.37822 2.02572 6.35322 2.01408C6.32822 2.00245 6.30113 1.99595 6.27357 1.99499C6.21236 2.00238 6.15602 2.03205 6.11529 2.07834C6.07456 2.12462 6.0523 2.18428 6.05274 2.24593L6.11548 2.83564C6.11503 2.89729 6.1373 2.95694 6.17803 3.00323C6.21875 3.04951 6.2751 3.07918 6.3363 3.08658C6.39037 3.08528 6.44176 3.06274 6.47934 3.02384V3.62108C6.47934 3.90715 7.458 4.80551 7.71145 4.80551H8.28109C8.53203 4.80551 9.51822 3.8946 9.51822 3.60853V3.04893C9.53643 3.07952 9.56209 3.105 9.59281 3.12299C9.62352 3.14098 9.65829 3.1509 9.69388 3.15182C9.75508 3.14442 9.81143 3.11475 9.85216 3.06847C9.89288 3.02219 9.91515 2.96253 9.91471 2.90088L10.0076 2.24593C10.008 2.18428 9.98573 2.12462 9.945 2.07834C9.90427 2.03205 9.84793 2.00238 9.78673 1.99499Z" fill="url(#paint6_radial)"/>
<path d="M9.61117 1.54076C9.61117 1.25468 9.53589 0.115417 8.29374 0.115417H7.67391C6.59236 0.115417 6.41922 1.25468 6.41922 1.54076C6.41922 1.54076 6.31382 2.79545 6.59236 3.04639L6.69274 1.94226C6.69274 1.65619 6.94368 1.18944 7.39788 1.31993C7.81779 1.41979 8.25526 1.41979 8.67516 1.31993C9.00641 1.22457 9.26487 1.64364 9.26487 1.92971L9.40038 3.05392C9.64128 2.82557 9.61117 1.54076 9.61117 1.54076Z" fill="#4C3D3D"/>
<g style="mix-blend-mode:screen" opacity="0.5">
<rect x="7.08154" y="0.167297" width="1.84023" height="0.970301" rx="0.48515" fill="url(#paint7_radial)"/>
</g>
<mask id="mask0" mask-type="alpha" maskUnits="userSpaceOnUse" x="0" y="3" width="9" height="9">
<rect y="3.96991" width="8.03008" height="8.03008" fill="#ffffff"/>
</mask>
<g mask="url(#mask0)">
<path d="M7.23958 11.8168H0.850651C0.762016 11.8209 0.675297 11.7901 0.609134 11.731C0.54297 11.6719 0.502645 11.5891 0.496826 11.5006V10.5796C0.496826 10.4065 0.664956 10.3864 0.850651 10.2635L4.04512 8.35883L7.23958 10.266C7.44786 10.3965 7.5934 10.409 7.5934 10.5822V11.5031C7.58696 11.5912 7.54636 11.6733 7.48027 11.7319C7.41418 11.7905 7.32781 11.8209 7.23958 11.8168V11.8168Z" fill="url(#paint8_linear)"/>
<path d="M3.5332 8.25845H4.59719V9.83436H3.5332V8.25845Z" fill="url(#paint9_linear)"/>
<path d="M4.14544 4.09787C5.47542 4.09787 6.26086 6.00752 6.12787 8.49183C4.54694 8.60475 2.00492 8.58216 2.00492 8.58216C2.00492 8.58216 1.66114 4.09787 4.14544 4.09787Z" fill="url(#paint10_linear)"/>
<path d="M4.04523 8.75782C4.73818 8.75782 5.29993 7.7815 5.29993 6.57715C5.29993 5.3728 4.73818 4.39648 4.04523 4.39648C3.35228 4.39648 2.79053 5.3728 2.79053 6.57715C2.79053 7.7815 3.35228 8.75782 4.04523 8.75782Z" fill="#4B201C" fill-opacity="0.34"/>
<path d="M4.11041 8.75782C4.80336 8.75782 5.36511 7.7815 5.36511 6.57715C5.36511 5.3728 4.80336 4.39648 4.11041 4.39648C3.41746 4.39648 2.85571 5.3728 2.85571 6.57715C2.85571 7.7815 3.41746 8.75782 4.11041 8.75782Z" fill="url(#paint11_radial)"/>
<path d="M4.1479 4.09787C2.8932 4.09787 2.3587 5.26223 2.14038 6.40401L2.85305 6.62985C3.2329 6.30505 3.67164 6.05629 4.14539 5.89711C4.89821 5.64617 4.79532 5.09912 4.79532 5.09912C4.94894 5.19987 5.07684 5.33519 5.16879 5.49424C5.26073 5.65328 5.31416 5.83165 5.32481 6.01505C5.36747 6.38142 5.50548 6.13048 5.82669 5.80175C5.5105 4.75784 4.9233 4.09787 4.1479 4.09787Z" fill="url(#paint12_linear)"/>
<ellipse cx="4.03167" cy="6.98117" rx="1.58929" ry="2.67669" fill="url(#paint13_radial)"/>
<path d="M4.59964 11.5583V8.91593L7.17428 10.3086C7.232 10.3438 7.28721 10.3714 7.33489 10.394C7.46538 10.4592 7.46537 10.4667 7.46537 10.5044V11.3827C7.45787 11.4357 7.43021 11.4838 7.38815 11.517C7.34609 11.5502 7.29286 11.5659 7.23953 11.5608H4.59964V11.5583ZM0.850602 11.5583C0.797268 11.5634 0.74404 11.5477 0.70198 11.5145C0.65992 11.4813 0.632263 11.4332 0.624756 11.3802V10.5019C0.624756 10.4642 0.624756 10.4517 0.762773 10.389C0.816891 10.3632 0.869657 10.3347 0.920865 10.3036L3.54319 8.89084V11.5583H0.850602V11.5583Z" fill="#E1C3C2"/>
<path d="M4.59964 11.5583V8.91593L7.17429 10.3086C7.232 10.3438 7.28721 10.3714 7.33489 10.394C7.46538 10.4592 7.46538 10.4667 7.46538 10.5044V11.3827C7.45787 11.4357 7.43021 11.4838 7.38815 11.517C7.34609 11.5502 7.29286 11.5659 7.23953 11.5608H4.59964V11.5583ZM0.850602 11.5583C0.797268 11.5634 0.74404 11.5477 0.70198 11.5145C0.65992 11.4813 0.632263 11.4332 0.624756 11.3802V10.5019C0.624756 10.4642 0.624756 10.4517 0.762773 10.389C0.816891 10.3632 0.869657 10.3347 0.920865 10.3036L3.54319 8.89084V11.5583H0.850602Z" fill="url(#paint14_linear)"/>
<path d="M3.3458 8.93236C3.44182 8.87693 3.47472 8.75415 3.41928 8.65813C3.36384 8.56211 3.24107 8.52922 3.14505 8.58465C3.04903 8.64009 3.01613 8.76287 3.07157 8.85888C3.127 8.9549 3.24978 8.9878 3.3458 8.93236Z" fill="#DA1C5C"/>
<path d="M3.54404 9.27901C3.64006 9.22358 3.67296 9.1008 3.61752 9.00478C3.56209 8.90876 3.43931 8.87586 3.34329 8.9313C3.24727 8.98674 3.21437 9.10952 3.26981 9.20553C3.32525 9.30155 3.44802 9.33445 3.54404 9.27901Z" fill="#DA1C5C"/>
<path d="M4.79868 9.27901C4.8947 9.22358 4.9276 9.1008 4.87216 9.00478C4.81673 8.90876 4.69395 8.87586 4.59793 8.9313C4.50191 8.98674 4.46901 9.10952 4.52445 9.20553C4.57988 9.30155 4.70266 9.33445 4.79868 9.27901Z" fill="#DA1C5C"/>
<path d="M4.99668 8.93487C5.0927 8.87943 5.12559 8.75665 5.07016 8.66063C5.01472 8.56462 4.89194 8.53172 4.79593 8.58715C4.69991 8.64259 4.66701 8.76537 4.72245 8.86139C4.77788 8.95741 4.90066 8.9903 4.99668 8.93487Z" fill="#DA1C5C"/>
<path d="M3.5332 9.83435H4.59719V11.8168H3.5332V9.83435Z" fill="url(#paint15_linear)"/>
</g>
<defs>
<linearGradient id="paint0_linear" x1="7.98731" y1="4.09751" x2="7.98731" y2="7.99408" gradientUnits="userSpaceOnUse">
<stop stop-color="#AAD1F6"/>
<stop offset="0.486188" stop-color="#82AAD7"/>
<stop offset="1" stop-color="#57789D"/>
</linearGradient>
<radialGradient id="paint1_radial" cx="0" cy="0" r="1" gradientUnits="userSpaceOnUse" gradientTransform="translate(8.03029 6.16809) scale(2.80802)">
<stop stop-color="#7FC8E7"/>
<stop offset="1" stop-color="#6DCFF6"/>
</radialGradient>
<linearGradient id="paint2_linear" x1="7.98489" y1="4.6842" x2="7.98489" y2="7.69548" gradientUnits="userSpaceOnUse">
<stop offset="0.0277778" stop-color="#57789D"/>
<stop offset="0.486188" stop-color="#82AAD7"/>
<stop offset="1" stop-color="#AAD1F6"/>
</linearGradient>
<linearGradient id="paint3_linear" x1="8.03022" y1="7.88955" x2="8.03022" y2="5.74652" gradientUnits="userSpaceOnUse">
<stop stop-color="#9D9FA2"/>
<stop offset="0.49" stop-color="white"/>
<stop offset="0.68" stop-color="#FDFDFD"/>
<stop offset="0.77" stop-color="#F5F5F6"/>
<stop offset="0.85" stop-color="#E7E8E9"/>
<stop offset="0.92" stop-color="#D4D5D7"/>
<stop offset="0.97" stop-color="#BCBEC0"/>
<stop offset="1" stop-color="#AEB0B3"/>
</linearGradient>
<linearGradient id="paint4_linear" x1="7.03638" y1="4.80048" x2="9.02382" y2="4.80048" gradientUnits="userSpaceOnUse">
<stop stop-color="#A57C4B"/>
<stop offset="0.07" stop-color="#BE9461"/>
<stop offset="0.14" stop-color="#D2A773"/>
<stop offset="0.22" stop-color="#E0B480"/>
<stop offset="0.32" stop-color="#E9BC87"/>
<stop offset="0.49" stop-color="#EBBE89"/>
<stop offset="0.68" stop-color="#E9BC87"/>
<stop offset="0.78" stop-color="#E1B480"/>
<stop offset="0.86" stop-color="#D3A874"/>
<stop offset="0.93" stop-color="#C09663"/>
<stop offset="0.99" stop-color="#A87F4D"/>
<stop offset="1" stop-color="#A37A49"/>
</linearGradient>
<radialGradient id="paint5_radial" cx="0" cy="0" r="1" gradientUnits="userSpaceOnUse" gradientTransform="translate(8.00814 2.45834) scale(1.77776 2.6167)">
<stop offset="0.71" stop-color="#B49167"/>
<stop offset="0.82" stop-color="#B08C60"/>
<stop offset="0.96" stop-color="#A67E4E"/>
<stop offset="0.99" stop-color="#A37A49"/>
</radialGradient>
<radialGradient id="paint6_radial" cx="0" cy="0" r="1" gradientUnits="userSpaceOnUse" gradientTransform="translate(8.00814 2.45837) scale(1.77776 2.6167)">
<stop stop-color="#EDBE89"/>
<stop offset="0.569215" stop-color="#EDBE89"/>
<stop offset="0.95151" stop-color="#A67E4E"/>
<stop offset="1" stop-color="#A37A49"/>
</radialGradient>
<radialGradient id="paint7_radial" cx="0" cy="0" r="1" gradientUnits="userSpaceOnUse" gradientTransform="translate(7.98499 0.669177) rotate(90) scale(0.334586 0.95148)">
<stop stop-color="#C4C4C4"/>
<stop offset="1" stop-color="#C4C4C4" stop-opacity="0"/>
</radialGradient>
<linearGradient id="paint8_linear" x1="4.04512" y1="8.35883" x2="4.04512" y2="11.8172" gradientUnits="userSpaceOnUse">
<stop stop-color="#ECCBCF"/>
<stop offset="1" stop-color="#AF3241"/>
</linearGradient>
<linearGradient id="paint9_linear" x1="3.5332" y1="9.0464" x2="4.5997" y2="9.0464" gradientUnits="userSpaceOnUse">
<stop stop-color="#A57C4B"/>
<stop offset="0.07" stop-color="#BE9461"/>
<stop offset="0.14" stop-color="#D2A773"/>
<stop offset="0.22" stop-color="#E0B480"/>
<stop offset="0.32" stop-color="#E9BC87"/>
<stop offset="0.49" stop-color="#EBBE89"/>
<stop offset="0.68" stop-color="#E9BC87"/>
<stop offset="0.78" stop-color="#E1B480"/>
<stop offset="0.86" stop-color="#D3A874"/>
<stop offset="0.93" stop-color="#C09663"/>
<stop offset="0.99" stop-color="#A87F4D"/>
<stop offset="1" stop-color="#A37A49"/>
</linearGradient>
<linearGradient id="paint10_linear" x1="4.06765" y1="4.09787" x2="4.06765" y2="8.58216" gradientUnits="userSpaceOnUse">
<stop offset="0.56" stop-color="#6E3B35"/>
<stop offset="0.72" stop-color="#6A3430"/>
<stop offset="0.95" stop-color="#5D2221"/>
<stop offset="1" stop-color="#5A1D1D"/>
</linearGradient>
<radialGradient id="paint11_radial" cx="0" cy="0" r="1" gradientUnits="userSpaceOnUse" gradientTransform="translate(4.11041 6.59198) scale(1.25219 2.16629)">
<stop offset="0.49" stop-color="#EBBE89"/>
<stop offset="0.66" stop-color="#E9BC87"/>
<stop offset="0.75" stop-color="#E1B480"/>
<stop offset="0.82" stop-color="#D3A874"/>
<stop offset="0.88" stop-color="#C09663"/>
<stop offset="0.94" stop-color="#A87F4D"/>
<stop offset="0.95" stop-color="#A37A49"/>
<stop offset="0.99" stop-color="#A37A49"/>
</radialGradient>
<linearGradient id="paint12_linear" x1="3.99232" y1="4.09787" x2="3.99232" y2="6.62985" gradientUnits="userSpaceOnUse">
<stop stop-color="#CF8F5E"/>
<stop offset="0.04" stop-color="#C6875A"/>
<stop offset="0.2" stop-color="#A66C4D"/>
<stop offset="0.37" stop-color="#8D5642"/>
<stop offset="0.55" stop-color="#7C473B"/>
<stop offset="0.73" stop-color="#713E36"/>
<stop offset="0.95" stop-color="#6E3B35"/>
</linearGradient>
<radialGradient id="paint13_radial" cx="0" cy="0" r="1" gradientUnits="userSpaceOnUse" gradientTransform="translate(3.68042 4.97365) rotate(-26.565) scale(1.49632 0.888438)">
<stop stop-color="#D2AB8D"/>
<stop offset="0.703125" stop-color="#A66C4E" stop-opacity="0"/>
</radialGradient>
<linearGradient id="paint14_linear" x1="4.04507" y1="8.89084" x2="4.04507" y2="11.5618" gradientUnits="userSpaceOnUse">
<stop stop-color="#AF3241"/>
<stop offset="1" stop-color="#ECCBCF"/>
</linearGradient>
<linearGradient id="paint15_linear" x1="4.06771" y1="11.8168" x2="4.06771" y2="9.83435" gradientUnits="userSpaceOnUse">
<stop stop-color="#9D9FA2"/>
<stop offset="0.49" stop-color="white"/>
<stop offset="0.68" stop-color="#FDFDFD"/>
<stop offset="0.77" stop-color="#F5F5F6"/>
<stop offset="0.85" stop-color="#E7E8E9"/>
<stop offset="0.92" stop-color="#D4D5D7"/>
<stop offset="0.97" stop-color="#BCBEC0"/>
<stop offset="1" stop-color="#AEB0B3"/>
</linearGradient>
</defs>
</svg>
