<svg width="12" height="12" viewBox="0 0 12 12" fill="none" xmlns="http://www.w3.org/2000/svg">
<path d="M11.2275 11.79H0.90749C0.763838 11.7982 0.62279 11.7491 0.515248 11.6535C0.407706 11.5579 0.342437 11.4236 0.33374 11.28V9.35623C0.33374 9.07498 0.60374 9.04498 0.90749 8.84623L6.06749 6.20248L11.2275 8.85373C11.565 9.06373 11.8012 9.08248 11.8012 9.36373V11.28C11.7925 11.4236 11.7273 11.5579 11.6197 11.6535C11.5122 11.7491 11.3711 11.7982 11.2275 11.79Z" fill="url(#paint0_linear)"/>
<path d="M6.96372 11.3737V7.10625L11.1225 8.925C11.2162 8.98125 11.3025 9.02625 11.3812 9.06375C11.5912 9.16875 11.5912 9.18 11.5912 9.24V11.0887C11.5791 11.1764 11.533 11.2559 11.4628 11.3099C11.3927 11.3639 11.3041 11.3882 11.2162 11.3775H6.96372V11.3737ZM0.907471 11.3737C0.819584 11.3844 0.731022 11.3601 0.660875 11.3061C0.590728 11.2521 0.544613 11.1727 0.532471 11.085V9.23625C0.532471 9.17625 0.551221 9.15375 0.753721 9.05625C0.841032 9.01438 0.926143 8.96807 1.00872 8.9175L5.24247 7.06125V11.3737H0.907471Z" fill="url(#paint1_radial)"/>
<path d="M6.96372 11.3737V7.10625L11.1225 8.925C11.2162 8.98125 11.3025 9.02625 11.3812 9.06375C11.5912 9.16875 11.5912 9.18 11.5912 9.24V11.0887C11.5791 11.1764 11.533 11.2559 11.4628 11.3099C11.3927 11.3639 11.3041 11.3882 11.2162 11.3775H6.96372V11.3737ZM0.907471 11.3737C0.819584 11.3844 0.731022 11.3601 0.660875 11.3061C0.590728 11.2521 0.544613 11.1727 0.532471 11.085V9.23625C0.532471 9.17625 0.551221 9.15375 0.753721 9.05625C0.841032 9.01438 0.926143 8.96807 1.00872 8.9175L5.24247 7.06125V11.3737H0.907471Z" fill="url(#paint2_linear)"/>
<path d="M5.20874 8.58749H6.92999V11.79H5.20874V8.58749Z" fill="url(#paint3_linear)"/>
<path d="M7.55252 8.56499L7.32752 8.85374H4.80377L4.58252 8.56499V5.49374H7.55252V8.56499Z" fill="url(#paint4_linear)"/>
<path d="M8.69256 2.98127C8.63938 2.98264 8.58742 2.99747 8.54152 3.02435C8.49562 3.05124 8.45727 3.08931 8.43006 3.13502V2.30252C8.43006 1.87502 8.17881 0.172516 6.44256 0.172516H5.58381C4.08381 0.172516 3.66006 1.87502 3.66006 2.30252V3.08252C3.63244 3.05192 3.59895 3.0272 3.56159 3.0098C3.52423 2.99241 3.48375 2.98271 3.44256 2.98127C3.35109 2.99232 3.2669 3.03666 3.20603 3.10582C3.14517 3.17499 3.11189 3.26414 3.11256 3.35627L3.20631 4.23752C3.20564 4.32965 3.23892 4.4188 3.29978 4.48796C3.36065 4.55712 3.44484 4.60146 3.53631 4.61252C3.61711 4.61057 3.6939 4.57689 3.75006 4.51877V5.41127C3.75006 5.83877 5.21256 7.18127 5.59131 7.18127H6.44256C6.81756 7.18127 8.29131 5.82002 8.29131 5.39252V4.55627C8.31852 4.60197 8.35687 4.64004 8.40277 4.66693C8.44867 4.69381 8.50063 4.70864 8.55381 4.71002C8.64527 4.69896 8.72947 4.65462 8.79034 4.58546C8.8512 4.5163 8.88447 4.42715 8.88381 4.33502L9.02256 3.35627C9.02322 3.26414 8.98995 3.17499 8.92909 3.10582C8.86822 3.03666 8.78402 2.99232 8.69256 2.98127Z" fill="url(#paint5_radial)"/>
<path d="M8.69256 2.98127C8.63938 2.98264 8.58742 2.99747 8.54152 3.02435C8.49562 3.05124 8.45727 3.08931 8.43006 3.13502V2.30252C8.43006 1.87502 8.17881 0.172516 6.44256 0.172516H5.58381C4.08381 0.172516 3.66006 1.87502 3.66006 2.30252V3.08252C3.63244 3.05192 3.59895 3.0272 3.56159 3.0098C3.52423 2.99241 3.48375 2.98271 3.44256 2.98127C3.35109 2.99232 3.2669 3.03666 3.20603 3.10582C3.14517 3.17499 3.11189 3.26414 3.11256 3.35627L3.20631 4.23752C3.20564 4.32965 3.23892 4.4188 3.29978 4.48796C3.36065 4.55712 3.44484 4.60146 3.53631 4.61252C3.61711 4.61057 3.6939 4.57689 3.75006 4.51877V5.41127C3.75006 5.83877 5.21256 7.18127 5.59131 7.18127H6.44256C6.81756 7.18127 8.29131 5.82002 8.29131 5.39252V4.55627C8.31852 4.60197 8.35687 4.64004 8.40277 4.66693C8.44867 4.69381 8.50063 4.70864 8.55381 4.71002C8.64527 4.69896 8.72947 4.65462 8.79034 4.58546C8.8512 4.5163 8.88447 4.42715 8.88381 4.33502L9.02256 3.35627C9.02322 3.26414 8.98995 3.17499 8.92909 3.10582C8.86822 3.03666 8.78402 2.99232 8.69256 2.98127Z" fill="url(#paint6_radial)"/>
<path d="M8.42984 2.30252C8.42984 1.87502 8.31734 0.172516 6.46109 0.172516H5.53484C3.91859 0.172516 3.65984 1.87502 3.65984 2.30252C3.65984 2.30252 3.50234 4.17752 3.91859 4.55252L4.06859 2.90252C4.06859 2.47502 4.44359 1.77752 5.12234 1.97252C5.74984 2.12175 6.40359 2.12175 7.03109 1.97252C7.52609 1.83002 7.91234 2.45627 7.91234 2.88377L8.11484 4.56377C8.47484 4.22252 8.42984 2.30252 8.42984 2.30252Z" fill="#4C3D3D"/>
<g style="mix-blend-mode:screen" opacity="0.5">
<rect x="4.6499" y="0.25" width="2.75" height="1.45" rx="0.725" fill="url(#paint7_radial)"/>
</g>
<defs>
<linearGradient id="paint0_linear" x1="6.00336" y1="6.12323" x2="6.00336" y2="11.9462" gradientUnits="userSpaceOnUse">
<stop stop-color="#AAD1F6"/>
<stop offset="0.486188" stop-color="#82AAD7"/>
<stop offset="1" stop-color="#57789D"/>
</linearGradient>
<radialGradient id="paint1_radial" cx="0" cy="0" r="1" gradientUnits="userSpaceOnUse" gradientTransform="translate(6.06747 9.2175) scale(4.19625)">
<stop stop-color="#7FC8E7"/>
<stop offset="1" stop-color="#6DCFF6"/>
</radialGradient>
<linearGradient id="paint2_linear" x1="6" y1="7" x2="6" y2="11.5" gradientUnits="userSpaceOnUse">
<stop offset="0.0277778" stop-color="#57789D"/>
<stop offset="0.486188" stop-color="#82AAD7"/>
<stop offset="1" stop-color="#AAD1F6"/>
</linearGradient>
<linearGradient id="paint3_linear" x1="6.06749" y1="11.79" x2="6.06749" y2="8.58749" gradientUnits="userSpaceOnUse">
<stop stop-color="#9D9FA2"/>
<stop offset="0.49" stop-color="white"/>
<stop offset="0.68" stop-color="#FDFDFD"/>
<stop offset="0.77" stop-color="#F5F5F6"/>
<stop offset="0.85" stop-color="#E7E8E9"/>
<stop offset="0.92" stop-color="#D4D5D7"/>
<stop offset="0.97" stop-color="#BCBEC0"/>
<stop offset="1" stop-color="#AEB0B3"/>
</linearGradient>
<linearGradient id="paint4_linear" x1="4.58252" y1="7.17374" x2="7.55252" y2="7.17374" gradientUnits="userSpaceOnUse">
<stop stop-color="#A57C4B"/>
<stop offset="0.07" stop-color="#BE9461"/>
<stop offset="0.14" stop-color="#D2A773"/>
<stop offset="0.22" stop-color="#E0B480"/>
<stop offset="0.32" stop-color="#E9BC87"/>
<stop offset="0.49" stop-color="#EBBE89"/>
<stop offset="0.68" stop-color="#E9BC87"/>
<stop offset="0.78" stop-color="#E1B480"/>
<stop offset="0.86" stop-color="#D3A874"/>
<stop offset="0.93" stop-color="#C09663"/>
<stop offset="0.99" stop-color="#A87F4D"/>
<stop offset="1" stop-color="#A37A49"/>
</linearGradient>
<radialGradient id="paint5_radial" cx="0" cy="0" r="1" gradientUnits="userSpaceOnUse" gradientTransform="translate(6.03467 3.67374) scale(2.65665 3.91035)">
<stop offset="0.71" stop-color="#B49167"/>
<stop offset="0.82" stop-color="#B08C60"/>
<stop offset="0.96" stop-color="#A67E4E"/>
<stop offset="0.99" stop-color="#A37A49"/>
</radialGradient>
<radialGradient id="paint6_radial" cx="0" cy="0" r="1" gradientUnits="userSpaceOnUse" gradientTransform="translate(6.03467 3.67374) scale(2.65665 3.91035)">
<stop stop-color="#EDBE89"/>
<stop offset="0.569215" stop-color="#EDBE89"/>
<stop offset="0.95151" stop-color="#A67E4E"/>
<stop offset="1" stop-color="#A37A49"/>
</radialGradient>
<radialGradient id="paint7_radial" cx="0" cy="0" r="1" gradientUnits="userSpaceOnUse" gradientTransform="translate(6 1) rotate(90) scale(0.5 1.42187)">
<stop stop-color="#C4C4C4"/>
<stop offset="1" stop-color="#C4C4C4" stop-opacity="0"/>
</radialGradient>
</defs>
</svg>
