<svg version="1" xmlns="http://www.w3.org/2000/svg" width="266.667" height="266.667" viewBox="0 0 200.000000 200.000000"><path d="M88.4 43.5c-4 .7-8 1.8-9 2.4-1.8 1.1-1.8 1.2.1.7 1.1-.3 4.3-.7 7-1 3.6-.4 4.3-.3 2.5.3-1.9.7-.7.9 5 1.1 9.7.2 13.9 1.7 16.7 5.9 2.6 3.8 3 9.3.9 11.4-.9.9-4.7 1.6-10.3 2-11.2.7-17.3 3-23.8 8.9-16 14.6-17 38.7-2.3 53.7 5.4 5.5 11.7 8.7 20.1 10.2 15.6 2.9 32.3-6.3 39.5-21.9 2.2-4.8 2.7-7.1 2.7-14.3 0-4.8.3-8.5.6-8.3.4.2 1.6 2.3 2.8 4.6 4.8 9.8 6.7 12.3 9 12 1.3-.2 3.2.5 4.4 1.5 1.1 1 1.7 1.2 1.2.4-.6-1-.4-1.3.7-.9 2.8 1.1 4-.9 4.5-7.3 1.1-14.1-6-32.8-16.5-43.7-9.9-10.2-19.5-15.5-31.9-17.7-9.5-1.7-14.6-1.7-23.9 0zm8 33.9c6.3 2.6 8.4 8.8 4.9 14.7-1.9 3.3-4.2 4.3-9.2 4.1-8.3-.3-12.4-11.2-6.4-16.8 1.8-1.6 3.5-2.4 5-2.1 1.2.2 2 0 1.7-.4-.7-1.2.1-1.1 4 .5zM41.1 119.5c-.2 2.2 3.6 10.5 7.5 16.5 7.7 12 19.4 21.1 32.3 25 7.4 2.3 9.1 2.5 9.1.7 0-1.9-4.7-6-5.9-5.3-.7.4-.9.1-.5-.8.4-1.1 0-1.3-1.5-.9-1.2.3-3.3-.4-5.3-1.8-1.8-1.3-5.7-3.5-8.8-5-3-1.4-6.1-3.3-6.9-4.2-.7-.9-1.7-1.4-2.2-1.1-.5.3-.9-.1-.9-.9 0-1.7-2.7-3-4.1-2.1-.5.3-.8.2-.7-.3.4-1.5-3.4-6.3-4.5-5.6-.6.4-.8 0-.4-1.1.4-.9.3-1.5-.1-1.3-1 .7-3.2-1.9-2.4-2.7.3-.4.2-1-.4-1.4-.6-.4-1.8-2.5-2.7-4.7-.9-2.2-1.6-3.6-1.6-3z"/></svg>